<svg width="30" height="30" viewBox="0 0 30 30" fill="none" xmlns="http://www.w3.org/2000/svg">
<g clip-path="url(#clip0_108_4209)">
<mask id="mask0_108_4209" style="mask-type:luminance" maskUnits="userSpaceOnUse" x="4" y="2" width="25" height="25">
<path d="M4 2H29V27H4V2Z" fill="white"/>
</mask>
<g mask="url(#mask0_108_4209)">
<path d="M18.2578 26.0234C18.2578 23.5553 20.2587 21.5312 22.7268 21.5312H23.5544C26.0226 21.5312 28.0234 23.5553 28.0234 26.0234" stroke="black" stroke-width="1.64406" stroke-miterlimit="10" stroke-linecap="round" stroke-linejoin="round"/>
<path d="M26.2695 14.9355C26.2695 16.6884 24.8485 18.1094 23.0957 18.1094C21.3429 18.1094 19.9219 16.6884 19.9219 14.9355C19.9219 13.1827 21.3429 11.7617 23.0957 11.7617C24.8485 11.7617 26.2695 13.1827 26.2695 14.9355Z" stroke="black" stroke-width="1.64406" stroke-miterlimit="10" stroke-linecap="round" stroke-linejoin="round"/>
<path d="M23.7276 7.85835C23.7276 5.16221 21.5419 2.97656 18.8458 2.97656H18.8448H9.8584C7.16226 2.97656 4.97656 5.16221 4.97656 7.85835V21.1416C4.97656 23.8377 7.16226 26.0234 9.8584 26.0234H14.3516" stroke="black" stroke-width="1.64406" stroke-miterlimit="10" stroke-linecap="round" stroke-linejoin="round"/>
<path d="M10.6875 13.0781H15.9609" stroke="black" stroke-width="1.64406" stroke-miterlimit="10" stroke-linecap="round" stroke-linejoin="round"/>
<path d="M10.6875 9.32812H17.9141" stroke="black" stroke-width="1.64406" stroke-miterlimit="10" stroke-linecap="round" stroke-linejoin="round"/>
<path d="M10.6875 20.5547H15.9609" stroke="black" stroke-width="1.64406" stroke-miterlimit="10" stroke-linecap="round" stroke-linejoin="round"/>
<path d="M10.6875 16.7969H15.9609" stroke="black" stroke-width="1.64406" stroke-miterlimit="10" stroke-linecap="round" stroke-linejoin="round"/>
</g>
</g>
<defs>
<clipPath id="clip0_108_4209">
<rect width="25" height="25" fill="white" transform="translate(4 2)"/>
</clipPath>
</defs>
</svg>
