<svg width="32" height="32" viewBox="0 0 32 32" fill="none" xmlns="http://www.w3.org/2000/svg">
<path d="M15.5 3C13.0277 3 10.611 3.73311 8.55538 5.10663C6.49976 6.48015 4.89761 8.43238 3.95151 10.7165C3.00542 13.0005 2.75787 15.5139 3.24019 17.9386C3.7225 20.3634 4.91301 22.5907 6.66117 24.3388C8.40933 26.087 10.6366 27.2775 13.0614 27.7598C15.4861 28.2421 17.9995 27.9946 20.2835 27.0485C22.5676 26.1024 24.5199 24.5002 25.8934 22.4446C27.2669 20.389 28 17.9723 28 15.5C27.9963 12.1859 26.6781 9.00869 24.3347 6.6653C21.9913 4.32191 18.8141 3.00375 15.5 3ZM15.5 27.1935C13.1872 27.1935 10.9264 26.5077 9.00342 25.2228C7.08042 23.9379 5.58163 22.1116 4.69658 19.9749C3.81152 17.8382 3.57995 15.487 4.03115 13.2187C4.48234 10.9504 5.59605 8.86678 7.23142 7.23141C8.86679 5.59604 10.9504 4.48234 13.2187 4.03114C15.487 3.57994 17.8382 3.81151 19.9749 4.69657C22.1116 5.58163 23.9379 7.08042 25.2228 9.00341C26.5077 10.9264 27.1935 13.1872 27.1935 15.5C27.19 18.6002 25.9569 21.5725 23.7647 23.7647C21.5725 25.9569 18.6002 27.19 15.5 27.1935Z" fill="#0A003D" stroke="#0A003D"/>
<path d="M24.2013 21.4435C21.869 19.18 18.7468 17.9141 15.4967 17.9141C12.2467 17.9141 9.12442 19.18 6.79212 21.4435C6.71625 21.5182 6.67303 21.6199 6.6719 21.7264C6.67076 21.8329 6.7118 21.9355 6.78606 22.0119C6.86032 22.0882 6.96176 22.1321 7.06825 22.1339C7.17473 22.1357 7.27761 22.0953 7.35442 22.0215C9.53619 19.9045 12.4567 18.7205 15.4967 18.7205C18.5367 18.7205 21.4572 19.9045 23.639 22.0215C23.7158 22.0953 23.8187 22.1357 23.9252 22.1339C24.0317 22.1321 24.1331 22.0882 24.2074 22.0119C24.2816 21.9355 24.3227 21.8329 24.3215 21.7264C24.3204 21.6199 24.2772 21.5182 24.2013 21.4435Z" fill="#0A003D" stroke="#0A003D"/>
<path d="M15.495 16.3102C16.452 16.3102 17.3875 16.0264 18.1832 15.4948C18.9789 14.9631 19.5991 14.2074 19.9653 13.3232C20.3316 12.4391 20.4274 11.4662 20.2407 10.5275C20.054 9.58892 19.5931 8.72675 18.9164 8.05004C18.2397 7.37333 17.3776 6.91249 16.4389 6.72579C15.5003 6.53909 14.5274 6.63491 13.6433 7.00114C12.7591 7.36737 12.0034 7.98756 11.4717 8.78328C10.94 9.579 10.6562 10.5145 10.6562 11.4715C10.6577 12.7544 11.1679 13.9843 12.0751 14.8914C12.9822 15.7986 14.2121 16.3088 15.495 16.3102ZM15.495 7.43927C16.2925 7.43927 17.0721 7.67575 17.7352 8.11882C18.3983 8.56189 18.9151 9.19165 19.2203 9.92845C19.5255 10.6652 19.6053 11.476 19.4497 12.2582C19.2942 13.0404 18.9101 13.7588 18.3462 14.3228C17.7823 14.8867 17.0638 15.2707 16.2816 15.4263C15.4994 15.5819 14.6887 15.502 13.9519 15.1968C13.2151 14.8917 12.5853 14.3748 12.1423 13.7117C11.6992 13.0486 11.4627 12.269 11.4627 11.4715C11.4639 10.4025 11.8891 9.37756 12.6451 8.62163C13.401 7.8657 14.4259 7.44048 15.495 7.43927Z" fill="#0A003D" stroke="#0A003D"/>
</svg>
