<svg width="36" height="35" viewBox="0 0 36 35" fill="none" xmlns="http://www.w3.org/2000/svg">
<g clip-path="url(#clip0_108_4292)">
<path d="M17.5011 5.00005C15.7259 4.99525 13.9704 5.37148 12.3531 6.10332C10.7357 6.83516 9.2943 7.90557 8.12612 9.24223V8.9063C8.12612 8.69909 8.04381 8.50038 7.8973 8.35387C7.75079 8.20736 7.55207 8.12505 7.34487 8.12505C7.13767 8.12505 6.93896 8.20736 6.79244 8.35387C6.64593 8.50038 6.56362 8.69909 6.56362 8.9063V11.25C6.56362 11.4572 6.64593 11.656 6.79244 11.8025C6.93896 11.949 7.13767 12.0313 7.34487 12.0313H9.68862C9.89582 12.0313 10.0945 11.949 10.241 11.8025C10.3876 11.656 10.4699 11.4572 10.4699 11.25C10.4699 11.0428 10.3876 10.8441 10.241 10.6976C10.0945 10.5511 9.89582 10.4688 9.68862 10.4688H9.12612C10.864 8.40488 13.3035 7.05617 15.9755 6.68191C18.6476 6.30766 21.3637 6.93429 23.6017 8.44133C25.8398 9.94838 27.4418 12.2295 28.0998 14.8462C28.7579 17.4628 28.4255 20.2304 27.1666 22.6169C25.9077 25.0033 23.8112 26.8403 21.2799 27.7745C18.7487 28.7088 15.9615 28.6745 13.454 27.6782C10.9465 26.682 8.89578 24.794 7.69598 22.3773C6.49619 19.9606 6.23202 17.1857 6.95425 14.586C6.98643 14.4855 6.99793 14.3795 6.98804 14.2745C6.97815 14.1694 6.94708 14.0674 6.8967 13.9747C6.84633 13.882 6.77769 13.8004 6.69493 13.735C6.61217 13.6695 6.51701 13.6215 6.41518 13.5938C6.21629 13.5384 6.00356 13.5641 5.82351 13.6651C5.64345 13.7661 5.51069 13.9343 5.45425 14.1329C4.74922 16.6534 4.85314 19.3316 5.75135 21.7899C6.64956 24.2482 8.29674 26.3625 10.4606 27.8348C12.6245 29.3071 15.196 30.063 17.8124 29.9959C20.4288 29.9289 22.9581 29.0423 25.0438 27.4611C27.1294 25.88 28.6662 23.6841 29.4373 21.183C30.2084 18.6819 30.1751 16.0019 29.3419 13.5208C28.5087 11.0397 26.9178 8.88272 24.7934 7.35399C22.669 5.82526 20.1184 5.00192 17.5011 5.00005Z" fill="black"/>
<path d="M23.0863 14.9609C23.0372 14.3738 22.7687 13.8267 22.3344 13.4285C21.9001 13.0304 21.3317 12.8105 20.7425 12.8125H19.8441V12.0312C19.8441 11.4096 19.5972 10.8135 19.1576 10.374C18.7181 9.93443 18.1219 9.6875 17.5003 9.6875C16.8787 9.6875 16.2826 9.93443 15.8431 10.374C15.4035 10.8135 15.1566 11.4096 15.1566 12.0312V12.8125H14.2503C13.6611 12.8105 13.0928 13.0304 12.6585 13.4285C12.2241 13.8267 11.9557 14.3738 11.9066 14.9609L11.3832 21.2109C11.3561 21.5347 11.3966 21.8606 11.5022 22.1679C11.6078 22.4752 11.7762 22.7572 11.9966 22.996C12.217 23.2347 12.4846 23.4251 12.7825 23.5549C13.0804 23.6847 13.402 23.7511 13.7269 23.75H21.2738C21.5987 23.7511 21.9203 23.6847 22.2182 23.5549C22.5161 23.4251 22.7837 23.2347 23.0041 22.996C23.2245 22.7572 23.3929 22.4752 23.4985 22.1679C23.6041 21.8606 23.6446 21.5347 23.6175 21.2109L23.0863 14.9609ZM16.7191 12.0312C16.7191 11.824 16.8014 11.6253 16.9479 11.4788C17.0944 11.3323 17.2931 11.25 17.5003 11.25C17.7075 11.25 17.9063 11.3323 18.0528 11.4788C18.1993 11.6253 18.2816 11.824 18.2816 12.0312V12.8125H16.7191V12.0312ZM21.2738 22.1875H13.7269C13.6188 22.1878 13.5119 22.1658 13.4128 22.1227C13.3137 22.0795 13.2246 22.0163 13.1511 21.937C13.0777 21.8577 13.0215 21.7641 12.9862 21.6619C12.9508 21.5598 12.937 21.4515 12.9457 21.3437L13.4613 15.0937C13.477 14.8976 13.5662 14.7146 13.7111 14.5813C13.8559 14.448 14.0457 14.3744 14.2425 14.375H15.1566V15.1562C15.1566 15.3635 15.2389 15.5622 15.3854 15.7087C15.5319 15.8552 15.7306 15.9375 15.9378 15.9375C16.145 15.9375 16.3438 15.8552 16.4903 15.7087C16.6368 15.5622 16.7191 15.3635 16.7191 15.1562V14.375H18.2816V15.1562C18.2816 15.3635 18.3639 15.5622 18.5104 15.7087C18.6569 15.8552 18.8556 15.9375 19.0628 15.9375C19.27 15.9375 19.4688 15.8552 19.6153 15.7087C19.7618 15.5622 19.8441 15.3635 19.8441 15.1562V14.375H20.7503C20.9472 14.3744 21.137 14.448 21.2818 14.5813C21.4266 14.7146 21.5158 14.8976 21.5316 15.0937L22.0472 21.3437C22.0558 21.4508 22.0422 21.5585 22.0073 21.6601C21.9724 21.7617 21.917 21.855 21.8444 21.9342C21.7718 22.0134 21.6837 22.0767 21.5855 22.1203C21.4873 22.1639 21.3812 22.1868 21.2738 22.1875Z" fill="black"/>
</g>
<defs>
<clipPath id="clip0_108_4292">
<rect width="25" height="25" fill="white" transform="translate(5 5)"/>
</clipPath>
</defs>
</svg>
